<svg width="271" height="33" viewBox="0 0 271 33" fill="none" xmlns="http://www.w3.org/2000/svg">
<g clip-path="url(#clip0_5331_26361)">
<path d="M122.468 29.7493H120.896L117.806 26.386H117.779V29.7493H116.658V22.7493H117.779V25.9553H117.806L120.746 22.7493H122.215L118.968 26.1262L122.468 29.7493Z" fill="black"/>
<path d="M126.773 29.9133C125.739 29.9133 124.912 29.5875 124.292 28.9358C123.677 28.2795 123.369 27.4114 123.369 26.3313C123.369 25.1555 123.69 24.2372 124.333 23.5764C124.976 22.9156 125.844 22.5852 126.938 22.5852C127.981 22.5852 128.795 22.9065 129.378 23.5491C129.966 24.1917 130.26 25.0826 130.26 26.2219C130.26 27.3385 129.943 28.234 129.31 28.9084C128.681 29.5784 127.835 29.9133 126.773 29.9133ZM126.856 23.5286C126.135 23.5286 125.566 23.7747 125.147 24.2668C124.727 24.7545 124.518 25.429 124.518 26.2903C124.518 27.1197 124.73 27.7737 125.153 28.2522C125.577 28.7307 126.145 28.97 126.856 28.97C127.58 28.97 128.136 28.7353 128.523 28.2659C128.915 27.7965 129.111 27.1288 129.111 26.2629C129.111 25.3879 128.915 24.7135 128.523 24.2395C128.136 23.7655 127.58 23.5286 126.856 23.5286Z" fill="black"/>
<path d="M133.43 28.7375H133.403V32.969H132.282V22.7493H133.403V23.9797H133.43C133.982 23.05 134.788 22.5852 135.85 22.5852C136.753 22.5852 137.457 22.8997 137.962 23.5286C138.468 24.1529 138.721 24.9915 138.721 26.0442C138.721 27.2154 138.436 28.1542 137.867 28.8606C137.297 29.5624 136.518 29.9133 135.529 29.9133C134.622 29.9133 133.922 29.5214 133.43 28.7375ZM133.403 25.9143V26.8918C133.403 27.4706 133.59 27.9628 133.963 28.3684C134.342 28.7694 134.82 28.97 135.399 28.97C136.078 28.97 136.609 28.7102 136.992 28.1907C137.379 27.6711 137.573 26.9488 137.573 26.0237C137.573 25.2444 137.393 24.6337 137.033 24.1917C136.673 23.7496 136.185 23.5286 135.57 23.5286C134.918 23.5286 134.394 23.7564 133.998 24.2122C133.601 24.6633 133.403 25.2307 133.403 25.9143Z" fill="black"/>
<path d="M146.554 29.7493H145.433V23.7063H141.864V29.7493H140.743V22.7493H146.554V29.7493Z" fill="black"/>
<path d="M151.98 29.9133C150.946 29.9133 150.118 29.5875 149.499 28.9358C148.883 28.2795 148.576 27.4114 148.576 26.3313C148.576 25.1555 148.897 24.2372 149.54 23.5764C150.182 22.9156 151.05 22.5852 152.144 22.5852C153.188 22.5852 154.001 22.9065 154.585 23.5491C155.173 24.1917 155.466 25.0826 155.466 26.2219C155.466 27.3385 155.15 28.234 154.516 28.9084C153.887 29.5784 153.042 29.9133 151.98 29.9133ZM152.062 23.5286C151.342 23.5286 150.772 23.7747 150.353 24.2668C149.934 24.7545 149.724 25.429 149.724 26.2903C149.724 27.1197 149.936 27.7737 150.36 28.2522C150.784 28.7307 151.351 28.97 152.062 28.97C152.787 28.97 153.343 28.7353 153.73 28.2659C154.122 27.7965 154.318 27.1288 154.318 26.2629C154.318 25.3879 154.122 24.7135 153.73 24.2395C153.343 23.7655 152.787 23.5286 152.062 23.5286Z" fill="black"/>
<path d="M158.637 28.7375H158.61V32.969H157.488V22.7493H158.61V23.9797H158.637C159.188 23.05 159.995 22.5852 161.057 22.5852C161.959 22.5852 162.663 22.8997 163.169 23.5286C163.675 24.1529 163.928 24.9915 163.928 26.0442C163.928 27.2154 163.643 28.1542 163.073 28.8606C162.504 29.5624 161.724 29.9133 160.736 29.9133C159.829 29.9133 159.129 29.5214 158.637 28.7375ZM158.61 25.9143V26.8918C158.61 27.4706 158.796 27.9628 159.17 28.3684C159.548 28.7694 160.027 28.97 160.606 28.97C161.285 28.97 161.816 28.7102 162.198 28.1907C162.586 27.6711 162.78 26.9488 162.78 26.0237C162.78 25.2444 162.599 24.6337 162.239 24.1917C161.879 23.7496 161.392 23.5286 160.777 23.5286C160.125 23.5286 159.601 23.7564 159.204 24.2122C158.808 24.6633 158.61 25.2307 158.61 25.9143Z" fill="black"/>
<path d="M170.961 29.7493H169.84V28.6555H169.812C169.325 29.4941 168.607 29.9133 167.659 29.9133C166.962 29.9133 166.415 29.7288 166.018 29.3596C165.626 28.9905 165.43 28.5006 165.43 27.8899C165.43 26.5819 166.201 25.8209 167.741 25.6067L169.84 25.3127C169.84 24.1233 169.359 23.5286 168.397 23.5286C167.554 23.5286 166.793 23.8157 166.114 24.3899V23.2415C166.802 22.804 167.595 22.5852 168.493 22.5852C170.138 22.5852 170.961 23.4556 170.961 25.1965V29.7493ZM169.84 26.2083L168.151 26.4407C167.632 26.5136 167.24 26.6435 166.975 26.8303C166.711 27.0126 166.579 27.3385 166.579 27.8079C166.579 28.1497 166.7 28.4299 166.941 28.6487C167.187 28.8629 167.513 28.97 167.919 28.97C168.475 28.97 168.933 28.7763 169.293 28.3889C169.657 27.997 169.84 27.5025 169.84 26.9055V26.2083Z" fill="black"/>
<path d="M177.7 23.7063H175.601V29.7493H174.48V23.7063H172.374V22.7493H177.7V23.7063Z" fill="black"/>
<path d="M185.142 29.7493H184.131V24.1643C184.03 24.3603 183.878 24.636 183.673 24.9915L180.439 29.7493H179.277V22.7493H180.303V28.2659C180.357 28.1337 180.476 27.9081 180.658 27.5891L183.98 22.7493H185.142V29.7493Z" fill="black"/>
<path d="M187.643 29.7493V22.7493H190.692C191.38 22.7493 191.922 22.9019 192.319 23.2073C192.72 23.5126 192.92 23.9296 192.92 24.4583C192.92 25.3652 192.474 25.9166 191.58 26.1125C192.651 26.2493 193.187 26.7893 193.187 27.7327C193.187 28.3023 192.966 28.7808 192.524 29.1682C192.086 29.5556 191.542 29.7493 190.89 29.7493H187.643ZM188.764 23.7063V25.675H190.446C191.348 25.675 191.799 25.3241 191.799 24.6223C191.799 24.0116 191.394 23.7063 190.582 23.7063H188.764ZM188.764 26.6321V28.7922H190.705C191.612 28.7922 192.066 28.4254 192.066 27.6917C192.066 26.9853 191.558 26.6321 190.541 26.6321H188.764Z" fill="black"/>
<path d="M201.108 29.7493H199.987V26.5706H196.419V29.7493H195.298V22.7493H196.419V25.6204H199.987V22.7493H201.108V29.7493Z" fill="black"/>
<path d="M211.265 29.7493H210.158V22.7493H211.265V29.7493ZM203.609 29.7493V22.7493H204.73V25.4358H206.617C207.332 25.4358 207.9 25.6226 208.319 25.9963C208.743 26.37 208.955 26.8918 208.955 27.5618C208.955 28.2362 208.743 28.7694 208.319 29.1614C207.895 29.5533 207.36 29.7493 206.712 29.7493H203.609ZM204.73 26.3997V28.7922H206.412C207.341 28.7922 207.806 28.3821 207.806 27.5618C207.806 26.787 207.337 26.3997 206.398 26.3997H204.73Z" fill="black"/>
<path d="M219.645 29.7493H218.633V24.1643C218.533 24.3603 218.38 24.636 218.175 24.9915L214.941 29.7493H213.779V22.7493H214.805V28.2659C214.859 28.1337 214.978 27.9081 215.16 27.5891L218.482 22.7493H219.645V29.7493ZM219.234 19.345C219.166 19.9875 218.906 20.4957 218.455 20.8694C218.008 21.2385 217.448 21.4231 216.773 21.4231C216.081 21.4231 215.516 21.2385 215.078 20.8694C214.645 20.4957 214.408 19.9875 214.367 19.345H215.475C215.538 20.2017 215.976 20.6301 216.787 20.6301C217.152 20.6301 217.453 20.5185 217.689 20.2952C217.926 20.0673 218.072 19.7506 218.127 19.345H219.234Z" fill="black"/>
<path d="M232.028 29.7493H230.907V23.7063H227.339V29.7493H226.218V22.7493H232.028V29.7493Z" fill="black"/>
<path d="M237.455 29.9133C236.42 29.9133 235.593 29.5875 234.973 28.9358C234.358 28.2795 234.05 27.4114 234.05 26.3313C234.05 25.1555 234.372 24.2372 235.014 23.5764C235.657 22.9156 236.525 22.5852 237.619 22.5852C238.662 22.5852 239.476 22.9065 240.059 23.5491C240.647 24.1917 240.941 25.0826 240.941 26.2219C240.941 27.3385 240.624 28.234 239.991 28.9084C239.362 29.5784 238.517 29.9133 237.455 29.9133ZM237.537 23.5286C236.817 23.5286 236.247 23.7747 235.828 24.2668C235.409 24.7545 235.199 25.429 235.199 26.2903C235.199 27.1197 235.411 27.7737 235.835 28.2522C236.258 28.7307 236.826 28.97 237.537 28.97C238.261 28.97 238.817 28.7353 239.205 28.2659C239.597 27.7965 239.793 27.1288 239.793 26.2629C239.793 25.3879 239.597 24.7135 239.205 24.2395C238.817 23.7655 238.261 23.5286 237.537 23.5286Z" fill="black"/>
<path d="M244.112 28.7375H244.084V32.969H242.963V22.7493H244.084V23.9797H244.112C244.663 23.05 245.47 22.5852 246.531 22.5852C247.434 22.5852 248.138 22.8997 248.644 23.5286C249.15 24.1529 249.403 24.9915 249.403 26.0442C249.403 27.2154 249.118 28.1542 248.548 28.8606C247.978 29.5624 247.199 29.9133 246.21 29.9133C245.303 29.9133 244.604 29.5214 244.112 28.7375ZM244.084 25.9143V26.8918C244.084 27.4706 244.271 27.9628 244.645 28.3684C245.023 28.7694 245.502 28.97 246.08 28.97C246.759 28.97 247.29 28.7102 247.673 28.1907C248.06 27.6711 248.254 26.9488 248.254 26.0237C248.254 25.2444 248.074 24.6337 247.714 24.1917C247.354 23.7496 246.866 23.5286 246.251 23.5286C245.599 23.5286 245.075 23.7564 244.679 24.2122C244.282 24.6633 244.084 25.2307 244.084 25.9143Z" fill="black"/>
<path d="M255.82 23.7063H253.721V29.7493H252.6V23.7063H250.495V22.7493H255.82V23.7063Z" fill="black"/>
<path d="M262.408 29.7493H261.287V28.6555H261.26C260.772 29.4941 260.055 29.9133 259.107 29.9133C258.409 29.9133 257.863 29.7288 257.466 29.3596C257.074 28.9905 256.878 28.5006 256.878 27.8899C256.878 26.5819 257.648 25.8209 259.189 25.6067L261.287 25.3127C261.287 24.1233 260.807 23.5286 259.845 23.5286C259.002 23.5286 258.241 23.8157 257.562 24.3899V23.2415C258.25 22.804 259.043 22.5852 259.941 22.5852C261.586 22.5852 262.408 23.4556 262.408 25.1965V29.7493ZM261.287 26.2083L259.599 26.4407C259.079 26.5136 258.687 26.6435 258.423 26.8303C258.159 27.0126 258.027 27.3385 258.027 27.8079C258.027 28.1497 258.147 28.4299 258.389 28.6487C258.635 28.8629 258.961 28.97 259.367 28.97C259.922 28.97 260.38 28.7763 260.741 28.3889C261.105 27.997 261.287 27.5025 261.287 26.9055V26.2083Z" fill="black"/>
<path d="M269.858 29.7493H268.744V23.6995H267.117C266.93 25.9644 266.609 27.5549 266.153 28.4709C265.702 29.387 265.094 29.845 264.328 29.845C264.096 29.845 263.895 29.8131 263.726 29.7493V28.7854C263.886 28.8674 264.059 28.9084 264.246 28.9084C265.249 28.9084 265.893 26.8554 266.18 22.7493H269.858V29.7493Z" fill="black"/>
<path d="M207.787 3.64941V0.209908H218.551V3.64941H215.123V13.238H211.234V3.64941H207.787Z" fill="#00477B"/>
<path d="M207.787 13.238L202.723 6.26839L207.575 0.209908H202.821L199.454 5.09486V0.214678H195.566V13.2142H199.454V9.60294L200.164 8.64885L203.052 13.238H207.787Z" fill="#00477B"/>
<path d="M187.976 9.96073H193.83V13.238H184.087V0.214678H193.83V3.49198H187.976V5.01376H193.699V8.29584H187.976V9.96073Z" fill="#00477B"/>
<path d="M182.846 13.2094H178.44L178.444 13.2046L176.22 4.98991L173.996 13.2046H169.581L173.77 0.176515H178.661L182.846 13.2094Z" fill="#00477B"/>
<path d="M168.353 13.2428H164.455L164.46 13.238V3.64941H159.856V13.238H155.967V0.214678H168.353V13.2428Z" fill="#00477B"/>
<path d="M144.014 0.214678L146.252 6.85516L148.519 0.214678H153.903V13.238H150.014V5.01853L147.136 13.238H145.401L142.533 5.01853V13.238H138.644V0.214678H144.014Z" fill="#00477B"/>
<path fill-rule="evenodd" clip-rule="evenodd" d="M137.257 6.74067C137.257 2.73348 134.2 7.62939e-06 130.232 7.62939e-06C126.268 7.62939e-06 123.211 2.73825 123.211 6.74067C123.211 10.7431 126.268 13.4766 130.232 13.4766C134.196 13.4766 137.257 10.7479 137.257 6.74067ZM133.312 6.75498C133.312 8.58684 132.113 10.018 130.232 10.018C128.384 10.018 127.152 8.58684 127.152 6.75498C127.152 4.92312 128.365 3.49198 130.232 3.49198C132.098 3.49198 133.312 4.92312 133.312 6.75498Z" fill="#00477B"/>
<path d="M119.012 0.214678H123.766L118.918 6.26839L123.978 13.2619H119.242L116.355 8.6727L115.645 9.6268V13.2428H111.756V0.214678H115.645V5.09963L119.012 0.214678Z" fill="#00477B"/>
<path d="M106.175 0.214678H110.773L106.776 6.56416L111.07 13.2428H106.485L104.134 9.25947L101.783 13.2428H97.2026L101.496 6.56416L97.4894 0.214678H102.051L104.134 3.9261L106.175 0.214678Z" fill="#00477B"/>
<path d="M96.8781 13.2428H87.1161V0.214678H96.8781V3.49675H91.0049V5.01853H96.7229V8.30061H91.0049V9.96073H96.8781V13.2428Z" fill="#00477B"/>
<path d="M78.4168 3.65418H74.97V0.214678H85.7289V3.65418H82.3009V13.2428H78.4168V3.65418Z" fill="#00477B"/>
<path d="M65.0952 4.82771H69.694V0.214678H73.5828V13.2428H69.694V8.26244H65.0952V13.2428H61.2063V0.214678H65.0952V4.82771Z" fill="#00477B"/>
<path fill-rule="evenodd" clip-rule="evenodd" d="M60.5151 13.2428L55.7799 0.219449H50.8895L46.1354 13.2428H50.3675L50.8707 11.5636H55.7846L56.283 13.2428H60.5151ZM53.3347 3.69234L54.8018 8.2863L51.8722 8.28153L53.3347 3.69234Z" fill="#00477B"/>
<path d="M46.5201 9.67188L46.5257 9.6745L46.521 9.66973L46.5201 9.67188Z" fill="#00477B"/>
<path d="M43.173 8.10979L46.5201 9.67188C45.7719 11.4079 44.0556 13.4813 40.5914 13.4813C36.6885 13.4813 33.6226 10.7622 33.6226 6.74067C33.6226 2.71917 36.665 7.62939e-06 40.5914 7.62939e-06C44.057 7.62939e-06 45.7498 1.99406 46.521 3.81638L43.173 5.39063C42.9919 4.83956 42.6459 4.35954 42.1831 4.01748C41.7204 3.67543 41.1639 3.48839 40.5914 3.48244C38.8186 3.48244 37.5678 4.92312 37.5678 6.75498C37.5678 8.58684 38.8233 10.018 40.5914 10.018C41.1638 10.0113 41.7199 9.82401 42.1825 9.48206C42.6451 9.1401 42.9913 8.66047 43.173 8.10979Z" fill="#00477B"/>
<path d="M225.04 0.143104H227.96L230.95 6.88853L233.508 0.143104H236.212L231.867 10.0466C231.508 10.9319 231.022 11.7583 230.424 12.4986C230.192 12.7739 229.904 12.9937 229.578 13.1422C229.253 13.2906 228.899 13.3641 228.543 13.3573C227.942 13.3711 227.341 13.3199 226.751 13.2046V11.2297C227.118 11.2551 227.45 11.2678 227.748 11.2678C228.202 11.3082 228.657 11.1904 229.037 10.9339C229.396 10.5258 229.651 10.0344 229.779 9.50275L225.04 0.143104Z" fill="#00477B"/>
<path fill-rule="evenodd" clip-rule="evenodd" d="M237.515 13.1712V0.143104H241.672C242.702 0.101243 243.734 0.166783 244.752 0.338693C245.493 0.539098 246.145 0.990092 246.6 1.61718C247.124 2.35344 247.389 3.24739 247.352 4.15506C247.373 4.85299 247.226 5.54564 246.924 6.17297C246.668 6.68386 246.296 7.12543 245.838 7.46099C245.435 7.75359 244.98 7.96272 244.498 8.07638C243.61 8.22132 242.711 8.2836 241.813 8.26243H240.125V13.176L237.515 13.1712ZM240.115 2.34229V6.05847H241.526C242.213 6.09766 242.901 6.02846 243.567 5.85335C243.896 5.72978 244.179 5.50454 244.375 5.20933C244.573 4.90885 244.675 4.55421 244.667 4.19322C244.683 3.76199 244.537 3.34069 244.258 3.01492C243.987 2.70676 243.62 2.50148 243.219 2.43292C242.595 2.35696 241.966 2.32825 241.338 2.34706L240.115 2.34229Z" fill="#00477B"/>
<path fill-rule="evenodd" clip-rule="evenodd" d="M259.475 13.1712L254.33 0.143104H251.584L246.6 13.176H249.351L250.418 10.2088H255.591L256.7 13.176L259.475 13.1712ZM251.208 8.00482L252.943 3.18189L254.73 8.00482H251.208Z" fill="#00477B"/>
<path d="M262.004 0.143104H271V13.176H268.4V2.34706H264.544V7.90941C264.569 9.02497 264.516 10.141 264.384 11.2487C264.312 11.8193 264.04 12.3445 263.617 12.7276C263.07 13.1199 262.405 13.3071 261.736 13.2571C261.431 13.2571 260.881 13.2285 260.081 13.1712V11.1199H260.66C261.038 11.161 261.42 11.0845 261.755 10.9005C261.943 10.751 262.037 10.3869 262.037 9.80806V7.57071L262.004 0.143104Z" fill="#00477B"/>
<path d="M29.3624 0.21492L12.0814 13.243C10.4657 14.4551 8.44164 14.9664 6.45438 14.6645C4.46711 14.3625 2.67948 13.2721 1.48473 11.633C0.289974 9.99394 -0.214026 7.94051 0.0835999 5.92445C0.381226 3.90839 1.4561 2.09485 3.07176 0.882784L3.95579 0.21492H10.3556L5.34298 4.03129C4.95054 4.32855 4.61967 4.70131 4.36924 5.12829C4.11881 5.55528 3.95373 6.02812 3.88343 6.51983C3.74145 7.51287 3.99414 8.52246 4.5859 9.3265C5.17767 10.1305 6.06003 10.6632 7.03889 10.8072C8.01775 10.9512 9.01292 10.6949 9.80547 10.0945L22.845 0.21492H29.3624Z" fill="#00477B"/>
<path d="M5.65333 6.76476C5.61632 7.0206 5.62967 7.28134 5.69263 7.5319C5.75559 7.78247 5.86689 8.01788 6.02011 8.22452C6.17221 8.43172 6.36308 8.60647 6.58181 8.73877C6.80054 8.87107 7.04284 8.95833 7.29484 8.99554C7.54684 9.03276 7.8036 9.01921 8.05043 8.95567C8.29726 8.89213 8.52933 8.77985 8.73335 8.62524L19.8496 0.21492H13.3651L6.42921 5.46243C6.22086 5.61609 6.04489 5.81047 5.91165 6.03412C5.77841 6.25777 5.69058 6.50618 5.65333 6.76476Z" fill="#00477B"/>
<path d="M23.4234 6.86971L20.1835 9.33604L24.1381 14.4929H29.0803L23.4375 6.86017L23.4234 6.86971Z" fill="#00477B"/>
<path d="M18.7446 10.4142L15.5282 12.8805L16.7273 14.5024H21.8199L18.7446 10.4142Z" fill="#00477B"/>
</g>
<defs>
<clipPath id="clip0_5331_26361">
<rect width="271" height="33" fill="white"/>
</clipPath>
</defs>
</svg>
