<svg width="24" height="24" viewBox="0 0 24 24" fill="none" xmlns="http://www.w3.org/2000/svg">
<path d="M19.4999 17C19.4999 15.8061 19.0679 14.8121 18.3877 13.9939C19.1868 14.2091 19.97 14.4923 20.6388 14.8409C21.8457 15.4699 22.4999 16.2105 22.4999 17V19.5H19.4999V17Z" fill="#141414" stroke="#141414"/>
<path d="M18.4999 8C18.4999 9.93386 16.9338 11.5 14.9999 11.5C14.8311 11.5 14.6649 11.4848 14.4997 11.4574C15.1318 10.4552 15.4999 9.26818 15.4999 8C15.4999 6.73182 15.1318 5.5448 14.4997 4.54256C14.6649 4.51519 14.8311 4.5 14.9999 4.5C16.9338 4.5 18.4999 6.06614 18.4999 8Z" fill="#141414" stroke="#141414"/>
<path d="M9 12C11.21 12 13 10.21 13 8C13 5.79 11.21 4 9 4C6.79 4 5 5.79 5 8C5 10.21 6.79 12 9 12ZM9 6C10.1 6 11 6.9 11 8C11 9.1 10.1 10 9 10C7.9 10 7 9.1 7 8C7 6.9 7.9 6 9 6Z" fill="#141414"/>
<path d="M9 13C6.33 13 1 14.34 1 17L1 20H17V17C17 14.34 11.67 13 9 13ZM15 18H3L3 17.01C3.2 16.29 6.3 15 9 15C11.7 15 14.8 16.29 15 17V18Z" fill="#141414"/>
</svg>
