<svg width="24" height="24" viewBox="0 0 24 24" fill="none" xmlns="http://www.w3.org/2000/svg">
<path d="M17.5 3V3.5H18H19C19.8239 3.5 20.5 4.17614 20.5 5L20.5 19C20.5 19.8239 19.8239 20.5 19 20.5L5 20.5C4.16777 20.5 3.5 19.8255 3.5 19L3.5 5C3.5 4.17451 4.16777 3.5 5 3.5H6H6.5V3V1.5H7.5V3V3.5H8L16 3.5H16.5V3V1.5H17.5V3ZM19 19.5H19.5V19L19.5 9V8.5H19L5 8.5H4.5V9L4.5 19V19.5H5L19 19.5ZM19 7.5H19.5V7V5V4.5H19L5 4.5H4.5V5L4.5 7V7.5H5L19 7.5ZM7.5 11.5L11.5 11.5V15.5L7.5 15.5L7.5 11.5Z" fill="#141414" stroke="#141414"/>
</svg>
